PathFileType	4	(X/Y/Z)	Kaydara	
DataRate	CameraRate	NumFrames	NumMarkers	Units	OrigDataRate	OrigDataStartFrame	OrigNumFrames	
60.00	60.00	4	74	mm	60.00	266	96	
Frame#	Time	Z_lasi			Z_rasi			Z_rpsi			Z_lpsi			Z_fneck			Z_bneck			Z_fhead			Z_rhead			Z_lhead			Z_rshld			Z_relbtop			Z_relbext			Z_relblow			Z_rwrext			Z_rwrtop			Z_rwrlow			Z_lshld			Z_lelbext			Z_lelblow			Z_lelbtop			Z_lwrext			Z_lwrtop			Z_lwrlow			Z_rtopleg			Z_ltopleg			Z_rkneefr			Z_rkneebk			Z_rkneeis			Z_lkneefr			Z_lknssbk			Z_lkneeis			Z_rankfr			Z_rankis			Z_rankbk			Z_lankfr			Z_lankbk			Z_lankis			A_lasi			A_rasi			A_rpsi			A_lpsi			A_fneck			A_bneck			A_fhead			A_rhead			A_lhead			A_rshld			A_relbtop			A_relbext			A_relblow			A_rwrext			A_rwrtop			A_rwrlow			A_lshld			A_lelbext			A_lelblow			A_lelbtop			A_lwrext			A_lwrtop			A_lwrlow			A_rtopleg			A_ltopleg			A_rkneefr			A_rkneebk			A_rkneeis			A_lkneefr			A_lknssbk			A_lkneeis			A_rankfr			A_rankis			A_rankbk			A_lankfr			A_lankbk			A_lankis			
		X1	Y1	Z1	X2	Y2	Z2	X3	Y3	Z3	X4	Y4	Z4	X5	Y5	Z5	X6	Y6	Z6	X7	Y7	Z7	X8	Y8	Z8	X9	Y9	Z9	X10	Y10	Z10	X11	Y11	Z11	X12	Y12	Z12	X13	Y13	Z13	X14	Y14	Z14	X15	Y15	Z15	X16	Y16	Z16	X17	Y17	Z17	X18	Y18	Z18	X19	Y19	Z19	X20	Y20	Z20	X21	Y21	Z21	X22	Y22	Z22	X23	Y23	Z23	X24	Y24	Z24	X25	Y25	Z25	X26	Y26	Z26	X27	Y27	Z27	X28	Y28	Z28	X29	Y29	Z29	X30	Y30	Z30	X31	Y31	Z31	X32	Y32	Z32	X33	Y33	Z33	X34	Y34	Z34	X35	Y35	Z35	X36	Y36	Z36	X37	Y37	Z37	X38	Y38	Z38	X39	Y39	Z39	X40	Y40	Z40	X41	Y41	Z41	X42	Y42	Z42	X43	Y43	Z43	X44	Y44	Z44	X45	Y45	Z45	X46	Y46	Z46	X47	Y47	Z47	X48	Y48	Z48	X49	Y49	Z49	X50	Y50	Z50	X51	Y51	Z51	X52	Y52	Z52	X53	Y53	Z53	X54	Y54	Z54	X55	Y55	Z55	X56	Y56	Z56	X57	Y57	Z57	X58	Y58	Z58	X59	Y59	Z59	X60	Y60	Z60	X61	Y61	Z61	X62	Y62	Z62	X63	Y63	Z63	X64	Y64	Z64	X65	Y65	Z65	X66	Y66	Z66	X67	Y67	Z67	X68	Y68	Z68	X69	Y69	Z69	X70	Y70	Z70	X71	Y71	Z71	X72	Y72	Z72	X73	Y73	Z73	X74	Y74	Z74	

61	4.417	-220.89079	1071.99379	691.33644	-302.36517	1074.34959	497.82768	-148.01204	1118.89160	389.46018	-45.14409	1110.95764	615.22655	-306.86871	1420.58197	585.94452	-215.67225	1511.01822	562.61097	-447.51472	1580.75729	576.57127	-304.85998	1634.23004	505.14858	-298.27347	1616.40411	651.86165	-315.38860	1424.97711	390.21599	-391.05293	1113.73367	360.37739	-364.28333	1101.71165	415.92098	-432.12208	1175.79529	397.63565	-592.24659	1048.83133	507.09961	-606.92085	1092.58560	503.27141	-583.96534	1106.92139	536.74622	-156.59177	1454.55521	734.89746	-49.85898	1155.77377	727.63557	-99.28638	1167.22191	800.82756	-31.07487	1178.94531	793.43956	-128.03717	905.33943	800.36812	-108.23874	900.82932	843.20641	-64.81072	903.38570	827.09312	-189.84987	928.02567	352.89627	-120.08179	895.07805	711.77162	-276.48138	427.22450	418.49796	-207.63126	449.82353	364.27521	-207.75551	433.14545	487.66243	-199.97953	450.82897	678.14873	-93.35209	470.96592	658.51486	-194.85435	443.60359	586.26759	-252.69016	182.43778	400.35862	-226.43652	177.88265	461.44970	-177.41791	169.53596	389.56257	-147.80745	164.18407	669.14940	-91.87727	165.01146	611.17821	-170.20439	175.31044	601.53633	-1003.26973	1042.88696	455.42931	-971.92001	1047.31041	612.65694	-1123.71132	1031.07018	653.90152	-1126.19728	1039.39438	469.89147	-1069.21463	1378.95950	566.55804	-1208.97377	1407.40875	577.27974	-1000.17960	1578.01651	588.15910	-1145.71182	1549.83612	675.85617	-1151.33667	1562.87918	513.36517	-1103.95103	1349.54315	743.16696	-934.99557	1125.90355	730.86861	-974.47067	1074.67941	737.74803	-953.57552	1113.24661	678.18443	-725.30670	1059.73816	640.34004	-725.86563	1106.00845	636.62514	-749.33083	1094.09317	605.83946	-1150.58632	1352.87201	397.43767	-1156.59058	1038.33252	396.00105	-1088.46725	1054.82811	380.63957	-1134.45213	1048.07091	352.04151	-1052.45850	829.88632	361.01887	-1073.69370	828.49800	326.02715	-1032.82082	842.95029	310.79487	-1049.59518	876.01456	721.49162	-1054.89792	893.56476	382.61436	-1012.95601	453.80337	626.74477	-1117.98439	488.41682	677.76512	-1104.94164	487.56523	559.09008	-1000.94254	470.07748	497.20394	-1095.78751	481.60992	410.87765	-1106.15501	482.08488	536.09200	-1092.25220	167.38737	656.68968	-1128.85841	164.67825	592.58991	-1173.27011	158.18945	664.14154	-1065.99808	167.78879	450.86441	-1129.09142	170.71350	419.39590	-1120.95482	175.71278	508.17989 
62	4.433	-220.01383	1072.64725	693.91960	-301.68406	1075.60043	500.51048	-146.89987	1119.17175	392.55974	-44.32566	1110.65178	618.24383	-304.76053	1421.79672	589.43172	-212.54543	1511.41815	566.04897	-443.13896	1584.67728	578.76251	-298.96626	1635.44952	508.47389	-294.23489	1617.30072	655.24513	-313.45640	1426.33606	394.41044	-391.60988	1115.79117	362.68944	-364.90627	1103.19267	417.99484	-431.38660	1178.62793	400.07145	-592.95574	1053.69781	509.37759	-607.39014	1097.35619	505.35416	-584.48811	1111.71860	538.74626	-153.74986	1454.19769	738.19969	-49.19845	1154.55956	731.60927	-99.70671	1166.26007	804.06830	-31.46341	1177.54234	797.80144	-129.59924	904.44580	804.96056	-110.09316	899.76166	847.76428	-66.71057	902.45003	832.19719	-188.23616	928.13293	355.51563	-121.25717	894.83780	714.65225	-275.50375	427.48974	419.47655	-206.20630	450.09335	365.58399	-206.31548	432.87075	488.56911	-199.77123	450.56126	678.72589	-93.25394	470.85651	660.03197	-194.36289	443.78281	587.00165	-252.11754	182.68883	400.68489	-226.17851	177.84723	461.74587	-176.94958	169.67358	390.24952	-147.98284	164.02319	669.55315	-91.81019	164.97549	611.52607	-170.16994	175.37416	601.81229	-1002.54501	1042.35664	454.58469	-970.58578	1046.46904	611.63830	-1122.72202	1030.64827	653.33076	-1125.44365	1039.17053	469.17137	-1067.31651	1378.82324	566.30219	-1206.26724	1406.59149	575.99583	-998.36174	1578.22571	587.83325	-1143.96416	1549.77097	675.05173	-1149.22829	1562.63733	512.47791	-1102.08267	1348.40576	744.35852	-936.65955	1122.96349	729.76280	-975.79567	1070.71663	734.76852	-954.82368	1111.07231	676.64894	-726.16104	1064.48647	641.04370	-727.82166	1110.62775	637.55753	-750.56198	1098.47916	606.52500	-1149.80682	1353.11371	397.04060	-1155.55618	1038.21449	396.76834	-1087.43034	1055.01083	380.89756	-1133.65768	1047.90359	352.63386	-1050.61874	830.18784	361.73649	-1071.88522	828.72665	326.67923	-1030.94971	843.32466	311.57806	-1048.98788	875.55527	720.68253	-1054.10225	893.27263	381.69098	-1013.22433	453.34579	626.29765	-1118.11890	488.28884	677.26509	-1105.15091	487.29801	558.60470	-1000.77240	469.85714	497.15446	-1095.63736	481.32622	410.77141	-1106.11237	481.89644	536.05316	-1092.36969	167.18845	656.44157	-1129.00665	164.42701	592.42680	-1173.39554	158.04142	663.93524	-1065.92285	167.61190	451.00109	-1129.03595	170.49038	419.56966	-1120.92186	175.58844	508.34072 
63	4.450	-218.85187	1072.81334	696.70837	-301.40701	1076.12465	503.70232	-146.71984	1119.22905	395.47798	-43.15078	1110.20683	620.49480	-302.57103	1422.89474	592.37114	-209.41229	1511.80923	569.59381	-438.98335	1588.53943	581.02787	-293.13196	1636.82098	512.15786	-289.89325	1618.07678	658.91937	-310.57474	1428.18710	397.67830	-391.45596	1118.58078	364.99676	-365.37510	1105.50201	420.56805	-430.39692	1181.88538	402.40761	-593.35464	1058.53958	511.68896	-607.59487	1102.37411	507.21786	-584.62826	1116.65161	540.38822	-150.73787	1453.79745	741.48659	-48.64552	1153.06801	735.65552	-99.43532	1165.52887	807.77008	-31.07974	1176.13045	801.89400	-131.96113	904.18259	809.62296	-112.78437	899.25583	852.55028	-68.72426	902.11014	836.81236	-187.08506	928.22319	358.18302	-122.19217	894.61182	717.47925	-274.52976	427.69279	420.38628	-204.86866	450.45143	367.01286	-206.23156	432.90520	490.14957	-199.88958	450.37487	679.70856	-93.17566	470.78377	661.49887	-194.09081	443.91769	587.98588	-251.60650	182.97161	401.02459	-225.96659	177.84088	462.16511	-176.54222	169.81848	390.87830	-147.80154	163.72496	669.77814	-91.79932	164.92651	612.03396	-170.04570	175.23088	601.74431	-1001.86440	1041.88835	453.55831	-969.71481	1045.35530	610.86113	-1121.42227	1030.08163	652.70607	-1124.54071	1038.90724	468.80711	-1065.79048	1378.77869	566.47644	-1203.67790	1406.53366	575.21580	-996.55029	1578.19962	587.28832	-1142.10426	1550.30640	674.72359	-1147.49496	1562.58087	511.99451	-1101.77956	1347.84363	745.18959	-938.93066	1120.67307	729.60762	-977.21390	1067.88399	730.69023	-954.43161	1111.52298	675.68764	-727.04880	1069.47029	642.28409	-729.00246	1115.50041	638.85296	-751.13228	1103.35449	607.33723	-1148.22922	1353.61771	396.54861	-1154.98993	1038.61694	397.40009	-1086.91048	1055.61234	381.34449	-1133.13171	1048.20320	353.29361	-1048.97789	830.86105	362.62978	-1070.20645	829.29665	327.55062	-1029.34677	844.10118	312.49331	-1048.04161	875.22079	720.13115	-1052.90169	893.08701	380.51723	-1013.35670	453.19195	625.68127	-1118.18764	488.36258	676.91460	-1105.45807	487.19879	558.24322	-1000.77934	469.73915	496.97426	-1095.64766	481.15646	410.57892	-1106.04424	481.83666	535.91698	-1092.42867	167.20900	656.26312	-1129.16046	164.37260	592.26711	-1173.44337	158.03488	663.81737	-1065.89989	167.51247	451.04679	-1129.05617	170.33594	419.62490	-1120.89668	175.59223	508.41419 
64	4.467	-218.00365	1072.47536	699.47609	-301.14374	1076.10779	506.90460	-146.86635	1119.22806	398.25233	-43.02296	1109.47205	623.16753	-300.09100	1424.12125	595.00416	-206.00849	1512.17651	573.17513	-434.41612	1592.34451	583.33839	-287.15933	1638.40424	516.23596	-285.62435	1618.57010	662.81708	-306.83857	1430.30243	400.19188	-390.64671	1121.50024	367.01015	-364.74518	1108.20740	422.66281	-429.13315	1185.10826	404.47201	-593.33538	1062.96165	513.34419	-607.36797	1106.81725	508.76411	-584.43459	1121.19446	541.87939	-147.99080	1453.06625	744.87350	-48.14786	1151.53137	739.51080	-98.34015	1165.04578	811.86958	-30.02592	1174.80797	805.42183	-134.49722	904.19418	814.19800	-115.87424	899.07578	857.19711	-72.03216	901.59454	842.37137	-186.38765	928.38455	360.78163	-122.93355	894.36905	720.26978	-273.98855	427.90535	421.36021	-203.85998	450.71209	368.43391	-206.68941	433.03658	491.95080	-199.65155	450.10086	680.78690	-92.79638	470.77225	662.68600	-193.90108	443.94222	589.25426	-251.22511	183.24240	401.26457	-225.90677	177.78591	462.69585	-176.07901	169.96113	391.49372	-147.70083	163.55307	670.12459	-91.79733	164.91173	612.46960	-170.09026	175.53631	602.49340	-1001.20743	1041.63040	452.49134	-968.46016	1044.62143	609.51885	-1120.30151	1029.99428	652.29568	-1123.67836	1039.08081	468.38890	-1064.58275	1378.82294	566.77956	-1201.58920	1407.20428	575.05268	-994.89456	1578.11798	586.45374	-1140.15053	1551.21353	674.67354	-1146.14769	1562.76688	511.81881	-1102.32742	1347.72217	745.47661	-941.00372	1119.36340	729.98001	-979.26514	1066.78795	726.69800	-952.96448	1113.85544	674.66888	-727.11029	1073.30444	643.42369	-729.49020	1119.41971	640.68893	-751.07864	1107.62001	608.76263	-1145.75546	1354.26666	396.09123	-1154.57138	1039.40857	397.78519	-1086.48193	1056.16470	381.58356	-1132.79930	1048.63663	353.58871	-1047.51122	831.68594	363.23719	-1068.94859	829.97238	327.58434	-1027.67128	845.07515	313.67435	-1047.00157	875.19379	719.75388	-1050.85716	893.35632	378.73085	-1013.44841	453.20580	625.14088	-1118.11600	488.54115	676.68640	-1105.75790	487.29824	557.94868	-1000.74081	469.75636	496.42326	-1095.76187	481.15456	410.27733	-1105.97305	481.86943	535.69252	-1092.38754	167.35044	656.14365	-1129.29482	164.50336	592.25842	-1173.38600	158.15163	663.85681	-1065.88425	167.55947	450.87425	-1129.07883	170.35000	419.56680	-1120.85144	175.69798	508.34373 
